<svg xmlns="http://www.w3.org/2000/svg" xmlns:xlink="http://www.w3.org/1999/xlink" contentStyleType="text/css" height="286px" preserveAspectRatio="none" style="width:615px;height:286px;background:#FFFFFF;" version="1.1" viewBox="0 0 615 286" width="615px" zoomAndPan="magnify"><defs/><g><path d="M19.5,7 L589.5,7 A12.5,12.5 0 0 1 602,19.5 L602,33.2969 L7,33.2969 L7,19.5 A12.5,12.5 0 0 1 19.5,7 " fill="#F1F1F1" style="stroke:#F1F1F1;stroke-width:1.0;"/><rect fill="none" height="273.2969" rx="12.5" ry="12.5" style="stroke:#181818;stroke-width:0.5;" width="595" x="7" y="7"/><line style="stroke:#181818;stroke-width:0.5;" x1="7" x2="602" y1="33.2969" y2="33.2969"/><text fill="#000000" font-family="sans-serif" font-size="14" lengthAdjust="spacing" textLength="112.2188" x="248.3906" y="24.9951">Recomendacion</text><ellipse cx="96" cy="54.2969" fill="#222222" rx="10" ry="10" style="stroke:#222222;stroke-width:1.0;"/><g id="Recomendacion.SinRecomendacion"><rect fill="#F1F1F1" height="50" rx="12.5" ry="12.5" style="stroke:#181818;stroke-width:0.5;" width="153.8682" x="19" y="117.2969"/><line style="stroke:#181818;stroke-width:0.5;" x1="19" x2="172.8682" y1="143.5938" y2="143.5938"/><text fill="#000000" font-family="sans-serif" font-size="14" lengthAdjust="spacing" textLength="133.8682" x="29" y="135.292">SinRecomendacion</text></g><g id="elem_rombo"><polygon fill="#F1F1F1" points="286,130.2969,298,142.2969,286,154.2969,274,142.2969,286,130.2969" style="stroke:#181818;stroke-width:0.5;"/></g><g id="Recomendacion.Recomienda"><rect fill="#F1F1F1" height="50" rx="12.5" ry="12.5" style="stroke:#181818;stroke-width:0.5;" width="107.083" x="327.5" y="117.2969"/><line style="stroke:#181818;stroke-width:0.5;" x1="327.5" x2="434.583" y1="143.5938" y2="143.5938"/><text fill="#000000" font-family="sans-serif" font-size="14" lengthAdjust="spacing" textLength="87.083" x="337.5" y="135.292">Recomienda</text></g><g id="Recomendacion.NoHayDatos"><rect fill="#F1F1F1" height="50" rx="12.5" ry="12.5" style="stroke:#181818;stroke-width:0.5;" width="107.1377" x="200.5" y="220.2969"/><line style="stroke:#181818;stroke-width:0.5;" x1="200.5" x2="307.6377" y1="246.5938" y2="246.5938"/><text fill="#000000" font-family="sans-serif" font-size="14" lengthAdjust="spacing" textLength="87.1377" x="210.5" y="238.292">NoHayDatos</text></g><g id="Recomendacion.Categoria"><rect fill="#F1F1F1" height="50" rx="12.5" ry="12.5" style="stroke:#181818;stroke-width:0.5;" width="88.1338" x="337" y="220.2969"/><line style="stroke:#181818;stroke-width:0.5;" x1="337" x2="425.1338" y1="246.5938" y2="246.5938"/><text fill="#000000" font-family="sans-serif" font-size="14" lengthAdjust="spacing" textLength="68.1338" x="347" y="238.292">Categoria</text></g><ellipse cx="583" cy="245.2969" fill="none" rx="11" ry="11" style="stroke:#222222;stroke-width:1.0;"/><ellipse cx="583" cy="245.2969" fill="#222222" rx="6" ry="6" style="stroke:#222222;stroke-width:1.0;"/><!--link *start*Recomendacion to SinRecomendacion--><g id="link_*start*Recomendacion_SinRecomendacion"><path d="M96,64.4969 C96,76.9769 96,93.7169 96,111.2269 " fill="none" id="*start*Recomendacion-to-SinRecomendacion" style="stroke:#181818;stroke-width:1.0;"/><polygon fill="#181818" points="96,117.2269,100,108.2269,96,112.2269,92,108.2269,96,117.2269" style="stroke:#181818;stroke-width:1.0;"/><text fill="#000000" font-family="sans-serif" font-size="13" lengthAdjust="spacing" textLength="228.3633" x="97" y="95.3638">Usuario registrado sin subscripción</text></g><!--link SinRecomendacion to rombo--><g id="link_SinRecomendacion_rombo"><path d="M173.01,142.2969 C211.27,142.2969 247.58,142.2969 267.86,142.2969 " fill="none" id="SinRecomendacion-to-rombo" style="stroke:#181818;stroke-width:1.0;"/><polygon fill="#181818" points="273.86,142.2969,264.86,138.2969,268.86,142.2969,264.86,146.2969,273.86,142.2969" style="stroke:#181818;stroke-width:1.0;"/><text fill="#000000" font-family="sans-serif" font-size="13" lengthAdjust="spacing" textLength="81.2944" x="183" y="135.3638">se subscribe</text></g><!--link rombo to Recomienda--><g id="link_rombo_Recomienda"><path d="M298.03,142.2969 C305.72,142.2969 310.29,142.2969 321.31,142.2969 " fill="none" id="rombo-to-Recomienda" style="stroke:#181818;stroke-width:1.0;"/><polygon fill="#181818" points="327.31,142.2969,318.31,138.2969,322.31,142.2969,318.31,146.2969,327.31,142.2969" style="stroke:#181818;stroke-width:1.0;"/><text fill="#000000" font-family="sans-serif" font-size="13" lengthAdjust="spacing" textLength="10.3848" x="307.75" y="135.3638">si</text></g><!--link rombo to NoHayDatos--><g id="link_rombo_NoHayDatos"><path d="M283.27,151.9069 C278.53,166.8869 270.4014,192.5268 263.4314,214.5368 " fill="none" id="rombo-to-NoHayDatos" style="stroke:#181818;stroke-width:1.0;"/><polygon fill="#181818" points="261.62,220.2569,268.1504,212.8844,263.1295,215.4902,260.5237,210.4692,261.62,220.2569" style="stroke:#181818;stroke-width:1.0;"/><text fill="#000000" font-family="sans-serif" font-size="13" lengthAdjust="spacing" textLength="16.1929" x="272" y="198.3638">no</text></g><!--link Recomienda to Categoria--><g id="link_Recomienda_Categoria"><path d="M381,167.4869 C381,183.3669 381,198.0469 381,213.9569 " fill="none" id="Recomienda-to-Categoria" style="stroke:#181818;stroke-width:1.0;"/><polygon fill="#181818" points="381,219.9569,385,210.9569,381,214.9569,377,210.9569,381,219.9569" style="stroke:#181818;stroke-width:1.0;"/><text fill="#000000" font-family="sans-serif" font-size="13" lengthAdjust="spacing" textLength="37.8003" x="382" y="198.3638">Sobre</text></g><!--link NoHayDatos to SinRecomendacion--><g id="link_NoHayDatos_SinRecomendacion"><path d="M216.19,220.1269 C191.27,204.1969 163.8259,186.6476 138.8959,170.7176 " fill="none" id="NoHayDatos-to-SinRecomendacion" style="stroke:#181818;stroke-width:1.0;"/><polygon fill="#181818" points="133.84,167.4869,139.2701,175.7036,138.0533,170.1791,143.5777,168.9623,133.84,167.4869" style="stroke:#181818;stroke-width:1.0;"/></g><!--link Categoria to *end*Recomendacion--><g id="link_Categoria_*end*Recomendacion"><path d="M425.33,245.2969 C472.71,245.2969 538.7,245.2969 565.99,245.2969 " fill="none" id="Categoria-to-*end*Recomendacion" style="stroke:#181818;stroke-width:1.0;"/><polygon fill="#181818" points="571.99,245.2969,562.99,241.2969,566.99,245.2969,562.99,249.2969,571.99,245.2969" style="stroke:#181818;stroke-width:1.0;"/><text fill="#000000" font-family="sans-serif" font-size="13" lengthAdjust="spacing" textLength="127.6641" x="435" y="238.3638">Fin Recomendacion</text></g><!--SRC=[RP2n2i9038RtFaLceIzGIXT5d1miJk9mlOQQeHT9heE8J-KZ-6BcAb8EXTl-Bz_bZqON4GxeUSJGEqySu5u0d5PdACi6MWfvMC5H9oV483YGHd4zWr80dJhrGbTFhsSmWpsTvS9Znr3N_iBaiMaAItwqfTXd7x82nQ-jGuDdaX8AjN4BHXRkUUTk6nTPyp1maO-cDclRPs0XPq3BdM0k-5SuMPQnUSrqcmgsrZad7sy0]--></g></svg>