<svg xmlns="http://www.w3.org/2000/svg" xmlns:xlink="http://www.w3.org/1999/xlink" contentStyleType="text/css" height="554px" preserveAspectRatio="none" style="width:685px;height:554px;background:#FFFFFF;" version="1.1" viewBox="0 0 685 554" width="685px" zoomAndPan="magnify"><defs/><g><!--class Perfil--><g id="elem_Perfil"><rect codeLine="4" fill="#F1F1F1" height="26.2969" id="Perfil" rx="2.5" ry="2.5" style="stroke:#181818;stroke-width:0.5;" width="41.5195" x="7" y="110"/><text fill="#000000" font-family="sans-serif" font-size="14" lengthAdjust="spacing" textLength="35.5195" x="10" y="127.9951">Perfil</text></g><!--class Usuario--><g id="elem_Usuario"><rect codeLine="5" fill="#F1F1F1" height="26.2969" id="Usuario" rx="2.5" ry="2.5" style="stroke:#181818;stroke-width:0.5;" width="59.2041" x="222.5" y="7"/><text fill="#000000" font-family="sans-serif" font-size="14" lengthAdjust="spacing" textLength="53.2041" x="225.5" y="24.9951">Usuario</text></g><!--class Condiciones--><g id="elem_Condiciones"><rect codeLine="6" fill="#F1F1F1" height="26.2969" id="Condiciones" rx="2.5" ry="2.5" style="stroke:#181818;stroke-width:0.5;" width="90.9229" x="84.5" y="110"/><text fill="#000000" font-family="sans-serif" font-size="14" lengthAdjust="spacing" textLength="84.9229" x="87.5" y="127.9951">Condiciones</text></g><!--class Dispositivo--><g id="elem_Dispositivo"><rect codeLine="7" fill="#F1F1F1" height="26.2969" id="Dispositivo" rx="2.5" ry="2.5" style="stroke:#181818;stroke-width:0.5;" width="82.8291" x="210.5" y="110"/><text fill="#000000" font-family="sans-serif" font-size="14" lengthAdjust="spacing" textLength="76.8291" x="213.5" y="127.9951">Dispositivo</text></g><!--class CreadorContenido--><g id="elem_CreadorContenido"><rect codeLine="8" fill="#F1F1F1" height="26.2969" id="CreadorContenido" rx="2.5" ry="2.5" style="stroke:#181818;stroke-width:0.5;" width="133.4629" x="328.5" y="110"/><text fill="#000000" font-family="sans-serif" font-size="14" lengthAdjust="spacing" textLength="127.4629" x="331.5" y="127.9951">CreadorContenido</text></g><!--class Viewer--><g id="elem_Viewer"><rect codeLine="9" fill="#F1F1F1" height="26.2969" id="Viewer" rx="2.5" ry="2.5" style="stroke:#181818;stroke-width:0.5;" width="53.8994" x="480" y="213"/><text fill="#000000" font-family="sans-serif" font-size="14" lengthAdjust="spacing" textLength="47.8994" x="483" y="230.9951">Viewer</text></g><!--class Suscripcion--><g id="elem_Suscripcion"><rect codeLine="10" fill="#F1F1F1" height="26.2969" id="Suscripcion" rx="2.5" ry="2.5" style="stroke:#181818;stroke-width:0.5;" width="86.3086" x="464" y="316"/><text fill="#000000" font-family="sans-serif" font-size="14" lengthAdjust="spacing" textLength="80.3086" x="467" y="333.9951">Suscripcion</text></g><!--class Categoria--><g id="elem_Categoria"><rect codeLine="11" fill="#F1F1F1" height="26.2969" id="Categoria" rx="2.5" ry="2.5" style="stroke:#181818;stroke-width:0.5;" width="74.1338" x="470" y="522"/><text fill="#000000" font-family="sans-serif" font-size="14" lengthAdjust="spacing" textLength="68.1338" x="473" y="539.9951">Categoria</text></g><!--class Contenido--><g id="elem_Contenido"><rect codeLine="12" fill="#F1F1F1" height="26.2969" id="Contenido" rx="2.5" ry="2.5" style="stroke:#181818;stroke-width:0.5;" width="77.5313" x="601" y="419"/><text fill="#000000" font-family="sans-serif" font-size="14" lengthAdjust="spacing" textLength="71.5313" x="604" y="436.9951">Contenido</text></g><!--class Recomendaci?n--><g id="elem_Recomendación"><rect fill="#F1F1F1" height="26.2969" id="Recomendación" rx="2.5" ry="2.5" style="stroke:#181818;stroke-width:0.5;" width="118.2188" x="448" y="419"/><text fill="#000000" font-family="sans-serif" font-size="14" lengthAdjust="spacing" textLength="112.2188" x="451" y="436.9951">Recomendación</text></g><!--link Usuario to Perfil--><g id="link_Usuario_Perfil"><path codeLine="14" d="M222.02,30.77 C198.76,38.65 165.89,50.46 138,63 C105.98,77.4 75.6341,94.1965 53.8441,106.7965 " fill="none" id="Usuario-to-Perfil" style="stroke:#181818;stroke-width:1.0;"/><polygon fill="#181818" points="48.65,109.8,58.4435,108.7575,52.9784,107.2971,54.4389,101.832,48.65,109.8" style="stroke:#181818;stroke-width:1.0;"/><text fill="#000000" font-family="sans-serif" font-size="13" lengthAdjust="spacing" textLength="32.9443" x="139" y="76.0669">tiene</text></g><!--link Usuario to Condiciones--><g id="link_Usuario_Condiciones"><path codeLine="15" d="M235.75,33.27 C224.94,41.53 210.48,52.75 198,63 C178.8,78.78 161.7059,93.7355 148.1059,105.8155 " fill="none" id="Usuario-to-Condiciones" style="stroke:#181818;stroke-width:1.0;"/><polygon fill="#181818" points="143.62,109.8,153.0052,106.8138,147.3583,106.4795,147.6925,100.8326,143.62,109.8" style="stroke:#181818;stroke-width:1.0;"/><text fill="#000000" font-family="sans-serif" font-size="13" lengthAdjust="spacing" textLength="44.4272" x="199" y="76.0669">acepta</text></g><!--link Usuario to Dispositivo--><g id="link_Usuario_Dispositivo"><path codeLine="16" d="M252,33.38 C252,52.87 252,84.47 252,103.83 " fill="none" id="Usuario-to-Dispositivo" style="stroke:#181818;stroke-width:1.0;"/><polygon fill="#181818" points="252,109.83,256,100.83,252,104.83,248,100.83,252,109.83" style="stroke:#181818;stroke-width:1.0;"/><text fill="#000000" font-family="sans-serif" font-size="13" lengthAdjust="spacing" textLength="22.9785" x="253" y="76.0669">usa</text></g><!--link Usuario to CreadorContenido--><g id="link_Usuario_CreadorContenido"><path codeLine="17" d="M269.25,33.18 C296.73,52.6 335.4681,79.9447 362.9881,99.3847 " fill="none" id="Usuario-to-CreadorContenido" style="stroke:#181818;stroke-width:1.0;"/><polygon fill="none" points="377.69,109.77,366.4499,94.484,359.5264,104.2853,377.69,109.77" style="stroke:#181818;stroke-width:1.0;"/><text fill="#000000" font-family="sans-serif" font-size="13" lengthAdjust="spacing" textLength="64.9873" x="334" y="76.0669">puede ser</text></g><!--link Usuario to Viewer--><g id="link_Usuario_Viewer"><path codeLine="18" d="M281.81,22.75 C332.16,27.49 433.04,45.03 479,110 C501.67,142.04 505.4744,172.3009 506.2544,194.7309 " fill="none" id="Usuario-to-Viewer" style="stroke:#181818;stroke-width:1.0;"/><polygon fill="none" points="506.88,212.72,512.2508,194.5224,500.2581,194.9394,506.88,212.72" style="stroke:#181818;stroke-width:1.0;"/><text fill="#000000" font-family="sans-serif" font-size="13" lengthAdjust="spacing" textLength="14.771" x="494" y="127.5669">es</text></g><!--link Viewer to Suscripcion--><g id="link_Viewer_Suscripcion"><path codeLine="19" d="M507,239.38 C507,258.87 507,290.47 507,309.83 " fill="none" id="Viewer-to-Suscripcion" style="stroke:#181818;stroke-width:1.0;"/><polygon fill="#181818" points="507,315.83,511,306.83,507,310.83,503,306.83,507,315.83" style="stroke:#181818;stroke-width:1.0;"/><text fill="#000000" font-family="sans-serif" font-size="13" lengthAdjust="spacing" textLength="52.0889" x="508" y="282.0669">tiene su</text></g><!--link Suscripcion to Recomendaci?n--><g id="link_Suscripcion_Recomendación"><path codeLine="20" d="M507,342.38 C507,361.87 507,393.47 507,412.83 " fill="none" id="Suscripcion-to-Recomendación" style="stroke:#181818;stroke-width:1.0;"/><polygon fill="#181818" points="507,418.83,511,409.83,507,413.83,503,409.83,507,418.83" style="stroke:#181818;stroke-width:1.0;"/><text fill="#000000" font-family="sans-serif" font-size="13" lengthAdjust="spacing" textLength="62.8418" x="508" y="385.0669">establece</text></g><!--link CreadorContenido to Categoria--><g id="link_CreadorContenido_Categoria"><path codeLine="21" d="M395,136.13 C395,155.09 395,192.91 395,225 C395,225 395,225 395,433 C395,476.99 437.7785,504.2337 470.9485,519.4837 " fill="none" id="CreadorContenido-to-Categoria" style="stroke:#181818;stroke-width:1.0;"/><polygon fill="#181818" points="476.4,521.99,469.8937,514.5962,471.8571,519.9014,466.5519,521.8648,476.4,521.99" style="stroke:#181818;stroke-width:1.0;"/><text fill="#000000" font-family="sans-serif" font-size="13" lengthAdjust="spacing" textLength="31.3511" x="396" y="333.5669">hace</text></g><!--link Recomendaci?n to Categoria--><g id="link_Recomendación_Categoria"><path codeLine="22" d="M507,445.38 C507,464.87 507,496.47 507,515.83 " fill="none" id="Recomendación-to-Categoria" style="stroke:#181818;stroke-width:1.0;"/><polygon fill="#181818" points="507,521.83,511,512.83,507,516.83,503,512.83,507,521.83" style="stroke:#181818;stroke-width:1.0;"/><text fill="#000000" font-family="sans-serif" font-size="13" lengthAdjust="spacing" textLength="36.3213" x="508" y="488.0669">sobre</text></g><!--link Contenido to Categoria--><g id="link_Contenido_Categoria"><path codeLine="23" d="M623.96,445.18 C598.39,464.6 553.4784,498.7014 527.8784,518.1414 " fill="none" id="Contenido-to-Categoria" style="stroke:#181818;stroke-width:1.0;"/><polygon fill="#181818" points="523.1,521.77,532.6867,519.5127,527.082,518.7462,527.8485,513.1415,523.1,521.77" style="stroke:#181818;stroke-width:1.0;"/><text fill="#000000" font-family="sans-serif" font-size="13" lengthAdjust="spacing" textLength="66.0728" x="583" y="488.0669">pertenece</text></g><!--link CreadorContenido to Viewer--><g id="link_CreadorContenido_Viewer"><path codeLine="24" d="M408.73,136.38 C430.35,155.87 467.585,189.4509 489.045,208.8109 " fill="none" id="CreadorContenido-to-Viewer" style="stroke:#181818;stroke-width:1.0;"/><polygon fill="#181818" points="493.5,212.83,489.4969,203.8314,489.7875,209.4808,484.1381,209.7714,493.5,212.83" style="stroke:#181818;stroke-width:1.0;"/><text fill="#000000" font-family="sans-serif" font-size="13" lengthAdjust="spacing" textLength="14.771" x="459" y="179.0669">es</text></g><!--SRC=[TP11KiCm34NtFeKlq0kmw0OEmC30th4_H3E9xP5iEWnmAex0nL1AS9qMTfRrzFM_HWgmdjXFCEFonfpBgvqn3s0nnazEnDw2dsXw-rZB1wcEARNwEiL0dbA4jByRafo42hrq7CE5n8eNH0gdnYFX06xbVHNFb1V5qwmhU4vChj_QPCngoUvs-zMjlRA5464tlSwg0iuZ5xS1EjyAL77z_Fl-8eD2kK8F9-0j-HDA-n2plfS5NRXcKQhflnVi3ZxDYC5v-lgCHvNYXWbU0rruE2RxFP2oemOpPmhdZAI1OVxNo63jwBw_rtNflW40]--></g></svg>