<svg xmlns="http://www.w3.org/2000/svg" xmlns:xlink="http://www.w3.org/1999/xlink" contentStyleType="text/css" height="464px" preserveAspectRatio="none" style="width:837px;height:464px;background:#FFFFFF;" version="1.1" viewBox="0 0 837 464" width="837px" zoomAndPan="magnify"><defs/><g><path d="M19.5,7 L811.6909,7 A12.5,12.5 0 0 1 824.1909,19.5 L824.1909,33.2969 L7,33.2969 L7,19.5 A12.5,12.5 0 0 1 19.5,7 " fill="#F1F1F1" style="stroke:#F1F1F1;stroke-width:1.0;"/><rect fill="none" height="451.2969" rx="12.5" ry="12.5" style="stroke:#181818;stroke-width:0.5;" width="817.1909" x="7" y="7"/><line style="stroke:#181818;stroke-width:0.5;" x1="7" x2="824.1909" y1="33.2969" y2="33.2969"/><text fill="#000000" font-family="sans-serif" font-size="14" lengthAdjust="spacing" textLength="112.2188" x="359.4861" y="24.9951">Recomendacion</text><ellipse cx="96" cy="54.2969" fill="#222222" rx="10" ry="10" style="stroke:#222222;stroke-width:1.0;"/><g id="Recomendacion.SinRecomendacion"><rect fill="#F1F1F1" height="50" rx="12.5" ry="12.5" style="stroke:#181818;stroke-width:0.5;" width="153.8682" x="19" y="117.2969"/><line style="stroke:#181818;stroke-width:0.5;" x1="19" x2="172.8682" y1="143.5938" y2="143.5938"/><text fill="#000000" font-family="sans-serif" font-size="14" lengthAdjust="spacing" textLength="133.8682" x="29" y="135.292">SinRecomendacion</text></g><g id="elem_rombo"><polygon fill="#F1F1F1" points="331,130.2969,343,142.2969,331,154.2969,319,142.2969,331,130.2969" style="stroke:#181818;stroke-width:0.5;"/></g><g id="Recomendacion.Recomienda"><rect fill="#F1F1F1" height="50" rx="12.5" ry="12.5" style="stroke:#181818;stroke-width:0.5;" width="107.083" x="501.5" y="117.2969"/><line style="stroke:#181818;stroke-width:0.5;" x1="501.5" x2="608.583" y1="143.5938" y2="143.5938"/><text fill="#000000" font-family="sans-serif" font-size="14" lengthAdjust="spacing" textLength="87.083" x="511.5" y="135.292">Recomienda</text></g><g id="Recomendacion.NoHayDatos"><rect fill="#F1F1F1" height="50" rx="12.5" ry="12.5" style="stroke:#181818;stroke-width:0.5;" width="107.1377" x="160.5" y="220.2969"/><line style="stroke:#181818;stroke-width:0.5;" x1="160.5" x2="267.6377" y1="246.5938" y2="246.5938"/><text fill="#000000" font-family="sans-serif" font-size="14" lengthAdjust="spacing" textLength="87.1377" x="170.5" y="238.292">NoHayDatos</text></g><g id="Recomendacion.Categoria"><rect fill="#F1F1F1" height="50" rx="12.5" ry="12.5" style="stroke:#181818;stroke-width:0.5;" width="88.1338" x="511" y="220.2969"/><line style="stroke:#181818;stroke-width:0.5;" x1="511" x2="599.1338" y1="246.5938" y2="246.5938"/><text fill="#000000" font-family="sans-serif" font-size="14" lengthAdjust="spacing" textLength="68.1338" x="521" y="238.292">Categoria</text></g><g id="Recomendacion.Contenido"><rect fill="#F1F1F1" height="50" rx="12.5" ry="12.5" style="stroke:#181818;stroke-width:0.5;" width="91.5313" x="509" y="323.2969"/><line style="stroke:#181818;stroke-width:0.5;" x1="509" x2="600.5313" y1="349.5938" y2="349.5938"/><text fill="#000000" font-family="sans-serif" font-size="14" lengthAdjust="spacing" textLength="71.5313" x="519" y="341.292">Contenido</text></g><ellipse cx="555" cy="437.2969" fill="none" rx="11" ry="11" style="stroke:#222222;stroke-width:1.0;"/><ellipse cx="555" cy="437.2969" fill="#222222" rx="6" ry="6" style="stroke:#222222;stroke-width:1.0;"/><!--link *start*Recomendacion to SinRecomendacion--><g id="link_*start*Recomendacion_SinRecomendacion"><path d="M96,64.4969 C96,76.9769 96,93.7169 96,111.2269 " fill="none" id="*start*Recomendacion-to-SinRecomendacion" style="stroke:#181818;stroke-width:1.0;"/><polygon fill="#181818" points="96,117.2269,100,108.2269,96,112.2269,92,108.2269,96,117.2269" style="stroke:#181818;stroke-width:1.0;"/><text fill="#000000" font-family="sans-serif" font-size="13" lengthAdjust="spacing" textLength="220.1113" x="97" y="95.3638">Usuario registrado sin suscripción</text></g><!--link SinRecomendacion to rombo--><g id="link_SinRecomendacion_rombo"><path d="M173.27,142.2969 C226.52,142.2969 286.29,142.2969 312.94,142.2969 " fill="none" id="SinRecomendacion-to-rombo" style="stroke:#181818;stroke-width:1.0;"/><polygon fill="#181818" points="318.94,142.2969,309.94,138.2969,313.94,142.2969,309.94,146.2969,318.94,142.2969" style="stroke:#181818;stroke-width:1.0;"/><text fill="#000000" font-family="sans-serif" font-size="13" lengthAdjust="spacing" textLength="126.5786" x="183" y="135.3638">Usuario se suscribe</text></g><!--link rombo to Recomienda--><g id="link_rombo_Recomienda"><path d="M343.04,142.2969 C372.3,142.2969 442.59,142.2969 495.19,142.2969 " fill="none" id="rombo-to-Recomienda" style="stroke:#181818;stroke-width:1.0;"/><polygon fill="#181818" points="501.19,142.2969,492.19,138.2969,496.19,142.2969,492.19,146.2969,501.19,142.2969" style="stroke:#181818;stroke-width:1.0;"/><text fill="#000000" font-family="sans-serif" font-size="13" lengthAdjust="spacing" textLength="139.8071" x="352.75" y="135.3638">Hay suficientes datos</text></g><!--link rombo to NoHayDatos--><g id="link_rombo_NoHayDatos"><path d="M327.88,151.5169 C322.82,163.8969 311.8,187.4569 296,202.2969 C287.72,210.0769 282.9776,213.8579 272.8576,219.4679 " fill="none" id="rombo-to-NoHayDatos" style="stroke:#181818;stroke-width:1.0;"/><polygon fill="#181818" points="267.61,222.3769,277.4208,221.5118,271.983,219.9527,273.5421,214.5149,267.61,222.3769" style="stroke:#181818;stroke-width:1.0;"/><text fill="#000000" font-family="sans-serif" font-size="13" lengthAdjust="spacing" textLength="160.0815" x="310" y="198.3638">No hay suficientes datos</text></g><!--link Recomienda to Categoria--><g id="link_Recomienda_Categoria"><path d="M555,167.4869 C555,183.3669 555,198.0469 555,213.9569 " fill="none" id="Recomienda-to-Categoria" style="stroke:#181818;stroke-width:1.0;"/><polygon fill="#181818" points="555,219.9569,559,210.9569,555,214.9569,551,210.9569,555,219.9569" style="stroke:#181818;stroke-width:1.0;"/><text fill="#000000" font-family="sans-serif" font-size="13" lengthAdjust="spacing" textLength="258.1909" x="556" y="198.3638">Genera recomendación sobre categoría</text></g><!--link Categoria to Contenido--><g id="link_Categoria_Contenido"><path d="M555,270.4869 C555,286.3669 555,301.0469 555,316.9569 " fill="none" id="Categoria-to-Contenido" style="stroke:#181818;stroke-width:1.0;"/><polygon fill="#181818" points="555,322.9569,559,313.9569,555,317.9569,551,313.9569,555,322.9569" style="stroke:#181818;stroke-width:1.0;"/><text fill="#000000" font-family="sans-serif" font-size="13" lengthAdjust="spacing" textLength="191.4072" x="556" y="301.3638">Propone contenido específico</text></g><!--link Contenido to *end*Recomendacion--><g id="link_Contenido_*end*Recomendacion"><path d="M555,373.5269 C555,390.8269 555,407.2169 555,420.0469 " fill="none" id="Contenido-to-*end*Recomendacion" style="stroke:#181818;stroke-width:1.0;"/><polygon fill="#181818" points="555,426.0469,559,417.0469,555,421.0469,551,417.0469,555,426.0469" style="stroke:#181818;stroke-width:1.0;"/><text fill="#000000" font-family="sans-serif" font-size="13" lengthAdjust="spacing" textLength="127.6641" x="556" y="404.3638">Fin Recomendación</text></g><!--link NoHayDatos to SinRecomendacion--><g id="link_NoHayDatos_SinRecomendacion"><path d="M160.45,236.7069 C139,230.8769 116.07,220.5569 102,202.2969 C94.52,192.5969 92.6017,185.1661 92.7917,173.5661 " fill="none" id="NoHayDatos-to-SinRecomendacion" style="stroke:#181818;stroke-width:1.0;"/><polygon fill="#181818" points="92.89,167.5669,88.7431,176.5002,92.8081,172.5662,96.7421,176.6312,92.89,167.5669" style="stroke:#181818;stroke-width:1.0;"/><text fill="#000000" font-family="sans-serif" font-size="13" lengthAdjust="spacing" textLength="188.8999" x="103" y="198.3638">Espera más datos de usuario</text></g><!--SRC=[TL4xRiCm3Drz2iu5V870yDBl51GfEWKTP8bDE5WqH7ieWXwc1yZK8_XYVR831qPRG8l8z-4ZhNSzquwzjXo3ywAHJWNH_kQDohAc5udhvePURN19b18VnFhaWf9991lC9-cyZDyH0dWsQITj6wMgyaSLptLTeFDBjKpmcf5N0-EBQCFWJ0J93Ae0Nz1FxWEmT_7ezMmKNAy6_5RHkSkVDNwhTFoJilR8uMyn_q6JED0UEN9o2BsCZPnasYGcF-F6iuF6bJH9A1oYXEpydBJJ2FXIO-lOZsTCefcvr3CpNs133zZiRkLPhBFzSwHxA6FSTlownAF0DCoBBJv_0000]--></g></svg>