<svg xmlns="http://www.w3.org/2000/svg" xmlns:xlink="http://www.w3.org/1999/xlink" contentStyleType="text/css" height="547px" preserveAspectRatio="none" style="width:684px;height:547px;background:#FFFFFF;" version="1.1" viewBox="0 0 684 547" width="684px" zoomAndPan="magnify"><defs/><g><!--class Perfil--><g id="elem_Perfil"><rect codeLine="4" fill="#F1F1F1" height="26.2969" id="Perfil" rx="2.5" ry="2.5" style="stroke:#181818;stroke-width:0.5;" width="41.5195" x="7" y="110"/><text fill="#000000" font-family="sans-serif" font-size="14" lengthAdjust="spacing" textLength="35.5195" x="10" y="127.9951">Perfil</text></g><!--class Usuario--><g id="elem_Usuario"><rect codeLine="5" fill="#F1F1F1" height="26.2969" id="Usuario" rx="2.5" ry="2.5" style="stroke:#181818;stroke-width:0.5;" width="59.2041" x="222.5" y="7"/><text fill="#000000" font-family="sans-serif" font-size="14" lengthAdjust="spacing" textLength="53.2041" x="225.5" y="24.9951">Usuario</text></g><!--class Condiciones--><g id="elem_Condiciones"><rect codeLine="6" fill="#F1F1F1" height="26.2969" id="Condiciones" rx="2.5" ry="2.5" style="stroke:#181818;stroke-width:0.5;" width="90.9229" x="84.5" y="110"/><text fill="#000000" font-family="sans-serif" font-size="14" lengthAdjust="spacing" textLength="84.9229" x="87.5" y="127.9951">Condiciones</text></g><!--class Dispositivo--><g id="elem_Dispositivo"><rect codeLine="7" fill="#F1F1F1" height="26.2969" id="Dispositivo" rx="2.5" ry="2.5" style="stroke:#181818;stroke-width:0.5;" width="82.8291" x="210.5" y="110"/><text fill="#000000" font-family="sans-serif" font-size="14" lengthAdjust="spacing" textLength="76.8291" x="213.5" y="127.9951">Dispositivo</text></g><!--class CreadorContenido--><g id="elem_CreadorContenido"><rect codeLine="8" fill="#F1F1F1" height="26.2969" id="CreadorContenido" rx="2.5" ry="2.5" style="stroke:#181818;stroke-width:0.5;" width="133.4629" x="328.5" y="110"/><text fill="#000000" font-family="sans-serif" font-size="14" lengthAdjust="spacing" textLength="127.4629" x="331.5" y="127.9951">CreadorContenido</text></g><!--class Viewer--><g id="elem_Viewer"><rect codeLine="9" fill="#F1F1F1" height="26.2969" id="Viewer" rx="2.5" ry="2.5" style="stroke:#181818;stroke-width:0.5;" width="53.8994" x="488" y="197"/><text fill="#000000" font-family="sans-serif" font-size="14" lengthAdjust="spacing" textLength="47.8994" x="491" y="214.9951">Viewer</text></g><!--class Suscripcion--><g id="elem_Suscripcion"><rect codeLine="10" fill="#F1F1F1" height="26.2969" id="Suscripcion" rx="2.5" ry="2.5" style="stroke:#181818;stroke-width:0.5;" width="86.3086" x="570" y="300"/><text fill="#000000" font-family="sans-serif" font-size="14" lengthAdjust="spacing" textLength="80.3086" x="573" y="317.9951">Suscripcion</text></g><!--class Categoria--><g id="elem_Categoria"><rect codeLine="11" fill="#F1F1F1" height="26.2969" id="Categoria" rx="2.5" ry="2.5" style="stroke:#181818;stroke-width:0.5;" width="74.1338" x="414" y="515"/><text fill="#000000" font-family="sans-serif" font-size="14" lengthAdjust="spacing" textLength="68.1338" x="417" y="532.9951">Categoria</text></g><!--class Contenido--><g id="elem_Contenido"><rect codeLine="12" fill="#F1F1F1" height="26.2969" id="Contenido" rx="2.5" ry="2.5" style="stroke:#181818;stroke-width:0.5;" width="77.5313" x="444" y="356"/><text fill="#000000" font-family="sans-serif" font-size="14" lengthAdjust="spacing" textLength="71.5313" x="447" y="373.9951">Contenido</text></g><!--class Recomendaci?n--><g id="elem_Recomendación"><rect codeLine="13" fill="#F1F1F1" height="26.2969" id="Recomendación" rx="2.5" ry="2.5" style="stroke:#181818;stroke-width:0.5;" width="118.2188" x="554" y="412"/><text fill="#000000" font-family="sans-serif" font-size="14" lengthAdjust="spacing" textLength="112.2188" x="557" y="429.9951">Recomendación</text></g><!--reverse link Usuario to Perfil--><g id="link_Usuario_Perfil"><path codeLine="15" d="M216.3373,32.6952 C193.0773,40.5752 165.89,50.46 138,63 C105.98,77.4 70.44,97.2 48.65,109.8 " fill="none" id="Usuario-backto-Perfil" style="stroke:#181818;stroke-width:1.0;"/><polygon fill="#181818" points="222.02,30.77,212.2124,29.8693,217.2844,32.3743,214.7793,37.4463,222.02,30.77" style="stroke:#181818;stroke-width:1.0;"/><text fill="#000000" font-family="sans-serif" font-size="13" lengthAdjust="spacing" textLength="32.9443" x="139" y="76.0669">tiene</text><text fill="#000000" font-family="sans-serif" font-size="13" lengthAdjust="spacing" textLength="8.271" x="206.1699" y="28.5741">1</text><text fill="#000000" font-family="sans-serif" font-size="13" lengthAdjust="spacing" textLength="8.271" x="47.1411" y="98.9437">1</text></g><!--reverse link Usuario to Condiciones--><g id="link_Usuario_Condiciones"><path codeLine="16" d="M230.9825,36.9129 C220.1725,45.1729 210.48,52.75 198,63 C178.8,78.78 157.22,97.72 143.62,109.8 " fill="none" id="Usuario-backto-Condiciones" style="stroke:#181818;stroke-width:1.0;"/><polygon fill="#181818" points="235.75,33.27,226.1701,35.556,231.7771,36.3057,231.0273,41.9127,235.75,33.27" style="stroke:#181818;stroke-width:1.0;"/><text fill="#000000" font-family="sans-serif" font-size="13" lengthAdjust="spacing" textLength="44.4272" x="199" y="76.0669">acepta</text><text fill="#000000" font-family="sans-serif" font-size="13" lengthAdjust="spacing" textLength="8.271" x="219.7897" y="53.4828">1</text><text fill="#000000" font-family="sans-serif" font-size="13" lengthAdjust="spacing" textLength="8.271" x="139.354" y="98.9437">1</text></g><!--reverse link Usuario to Dispositivo--><g id="link_Usuario_Dispositivo"><path codeLine="17" d="M252,39.38 C252,58.87 252,90.47 252,109.83 " fill="none" id="Usuario-backto-Dispositivo" style="stroke:#181818;stroke-width:1.0;"/><polygon fill="#181818" points="252,33.38,248,42.38,252,38.38,256,42.38,252,33.38" style="stroke:#181818;stroke-width:1.0;"/><text fill="#000000" font-family="sans-serif" font-size="13" lengthAdjust="spacing" textLength="22.9785" x="253" y="76.0669">usa</text><text fill="#000000" font-family="sans-serif" font-size="13" lengthAdjust="spacing" textLength="8.271" x="242.4878" y="53.3761">1</text><text fill="#000000" font-family="sans-serif" font-size="13" lengthAdjust="spacing" textLength="23.0356" x="224.655" y="98.9852">1..*</text></g><!--reverse link Usuario to CreadorContenido--><g id="link_Usuario_CreadorContenido"><path codeLine="18" d="M283.9498,43.5683 C311.4298,62.9883 350.17,90.33 377.69,109.77 " fill="none" id="Usuario-backto-CreadorContenido" style="stroke:#181818;stroke-width:1.0;"/><polygon fill="none" points="269.25,33.18,280.487,48.4682,287.4125,38.6683,269.25,33.18" style="stroke:#181818;stroke-width:1.0;"/></g><!--reverse link Usuario to Viewer--><g id="link_Usuario_Viewer"><path codeLine="19" d="M299.4695,27.5487 C347.3895,35.1187 424.17,53.79 479,110 C503.01,134.61 511.17,176.47 513.81,196.97 " fill="none" id="Usuario-backto-Viewer" style="stroke:#181818;stroke-width:1.0;"/><polygon fill="none" points="281.69,24.74,298.5333,33.4752,300.4057,21.6222,281.69,24.74" style="stroke:#181818;stroke-width:1.0;"/></g><!--reverse link CreadorContenido to Viewer--><g id="link_CreadorContenido_Viewer"><path codeLine="20" d="M426.8797,146.5825 C449.6997,162.7425 475.04,180.7 497.84,196.84 " fill="none" id="CreadorContenido-backto-Viewer" style="stroke:#181818;stroke-width:1.0;"/><polygon fill="none" points="412.19,136.18,423.4122,151.4791,430.3472,141.686,412.19,136.18" style="stroke:#181818;stroke-width:1.0;"/></g><!--link Viewer to Suscripcion--><g id="link_Viewer_Suscripcion"><path codeLine="21" d="M535.83,223.14 C547.84,230.76 562.73,241.33 574,253 C587.82,267.31 596.8902,281.8663 603.8002,294.4963 " fill="none" id="Viewer-to-Suscripcion" style="stroke:#181818;stroke-width:1.0;"/><polygon fill="#181818" points="606.68,299.76,605.8694,289.9446,604.2801,295.3736,598.8511,293.7843,606.68,299.76" style="stroke:#181818;stroke-width:1.0;"/><text fill="#000000" font-family="sans-serif" font-size="13" lengthAdjust="spacing" textLength="52.0889" x="589" y="266.0669">tiene su</text><text fill="#000000" font-family="sans-serif" font-size="13" lengthAdjust="spacing" textLength="8.271" x="534.53" y="243.3016">1</text><text fill="#000000" font-family="sans-serif" font-size="13" lengthAdjust="spacing" textLength="23.0356" x="576.8341" y="288.8885">1..*</text></g><!--link Viewer to Contenido--><g id="link_Viewer_Contenido"><path codeLine="22" d="M512.54,223.06 C506.6,252.21 492.7094,320.3911 486.7094,349.8011 " fill="none" id="Viewer-to-Contenido" style="stroke:#181818;stroke-width:1.0;"/><polygon fill="#181818" points="485.51,355.68,491.2283,347.6612,486.5095,350.7809,483.3898,346.0621,485.51,355.68" style="stroke:#181818;stroke-width:1.0;"/><text fill="#000000" font-family="sans-serif" font-size="13" lengthAdjust="spacing" textLength="56.2974" x="508" y="266.0669">visualiza</text><text fill="#000000" font-family="sans-serif" font-size="13" lengthAdjust="spacing" textLength="8.271" x="501.9519" y="243.5741">1</text><text fill="#000000" font-family="sans-serif" font-size="13" lengthAdjust="spacing" textLength="23.0356" x="459.2879" y="345.0393">0..*</text></g><!--link Suscripcion to Recomendaci?n--><g id="link_Suscripcion_Recomendación"><path codeLine="23" d="M613,326.19 C613,347.34 613,384.57 613,405.75 " fill="none" id="Suscripcion-to-Recomendación" style="stroke:#181818;stroke-width:1.0;"/><polygon fill="#181818" points="613,411.75,617,402.75,613,406.75,609,402.75,613,411.75" style="stroke:#181818;stroke-width:1.0;"/><text fill="#000000" font-family="sans-serif" font-size="13" lengthAdjust="spacing" textLength="62.8418" x="614" y="373.5669">establece</text><text fill="#000000" font-family="sans-serif" font-size="13" lengthAdjust="spacing" textLength="8.271" x="603.4176" y="346.3713">1</text><text fill="#000000" font-family="sans-serif" font-size="13" lengthAdjust="spacing" textLength="8.271" x="603.485" y="400.8747">1</text></g><!--link Recomendaci?n to Categoria--><g id="link_Recomendación_Categoria"><path codeLine="24" d="M593.46,438.18 C562.24,457.65 506.5515,492.3656 475.4515,511.7556 " fill="none" id="Recomendación-to-Categoria" style="stroke:#181818;stroke-width:1.0;"/><polygon fill="#181818" points="470.36,514.93,480.1135,513.5627,474.6029,512.2847,475.881,506.7741,470.36,514.93" style="stroke:#181818;stroke-width:1.0;"/><text fill="#000000" font-family="sans-serif" font-size="13" lengthAdjust="spacing" textLength="36.3213" x="543" y="481.0669">sobre</text><text fill="#000000" font-family="sans-serif" font-size="13" lengthAdjust="spacing" textLength="8.271" x="576.2014" y="458.3573">1</text><text fill="#000000" font-family="sans-serif" font-size="13" lengthAdjust="spacing" textLength="23.0356" x="482.4918" y="503.8652">1..*</text></g><!--link Contenido to Categoria--><g id="link_Contenido_Categoria"><path codeLine="25" d="M477.89,382.3 C474.63,390.57 470.55,401.78 468,412 C458.8,448.81 454.4845,487.6048 452.5545,508.7848 " fill="none" id="Contenido-to-Categoria" style="stroke:#181818;stroke-width:1.0;"/><polygon fill="#181818" points="452.01,514.76,456.8102,506.1601,452.4637,509.7806,448.8432,505.4341,452.01,514.76" style="stroke:#181818;stroke-width:1.0;"/><text fill="#000000" font-family="sans-serif" font-size="13" lengthAdjust="spacing" textLength="66.0728" x="469" y="429.5669">pertenece</text><text fill="#000000" font-family="sans-serif" font-size="13" lengthAdjust="spacing" textLength="8.271" x="466.5578" y="402.2656">1</text><text fill="#000000" font-family="sans-serif" font-size="13" lengthAdjust="spacing" textLength="8.271" x="442.8962" y="503.8885">1</text></g><!--link CreadorContenido to Categoria--><g id="link_CreadorContenido_Categoria"><path codeLine="26" d="M381.61,136.11 C366.2,151.43 343,179.42 343,209 C343,209 343,209 343,426 C343,469.38 384.6684,496.8879 416.6584,512.3579 " fill="none" id="CreadorContenido-to-Categoria" style="stroke:#181818;stroke-width:1.0;"/><polygon fill="#181818" points="422.06,514.97,415.6991,507.4508,417.5587,512.7932,412.2163,514.6528,422.06,514.97" style="stroke:#181818;stroke-width:1.0;"/><text fill="#000000" font-family="sans-serif" font-size="13" lengthAdjust="spacing" textLength="117.4634" x="344" y="317.5669">crea contenido de</text><text fill="#000000" font-family="sans-serif" font-size="13" lengthAdjust="spacing" textLength="8.271" x="366.7249" y="156.2598">1</text><text fill="#000000" font-family="sans-serif" font-size="13" lengthAdjust="spacing" textLength="23.0356" x="383.1174" y="503.9209">1..*</text></g><!--SRC=[VP5DJiCm48NtFeML9L8gs5OL6pW0eeAzOp_eI4biUPmY_ax54RWOJjB6hbkniiVppPjvunqPI4rUjn2xyOxEXNVPeMlWMGZTAcRv0Fz2xUVt8NpYGNcoItndUqEQR0zUtkw9dMKAjCyu3sMiZtX0JoObdWbly4ku7LXxSgDYgbK1hzQJohiMCe_GjaDlbARVdx5K72QLrKqbDtKzdRCPkPQ1qECYaXcAdD9mGLq0LwkhAZSQsO4JkFcALEdvD3iR5oLqafoFgMrTtnxRPZiwMf4ydC7N4vo4rt9FSO2MFfJ89P9wLQmnbe23QbfeY29LpBJyKQnXstY8r3Xla7CEFXAZzjaI_b7NaPLw8Gt-0000]--></g></svg>