<svg xmlns="http://www.w3.org/2000/svg" xmlns:xlink="http://www.w3.org/1999/xlink" contentStyleType="text/css" height="389px" preserveAspectRatio="none" style="width:888px;height:389px;background:#FFFFFF;" version="1.1" viewBox="0 0 888 389" width="888px" zoomAndPan="magnify"><defs/><g><path d="M19.5,7 L862.0887,7 A12.5,12.5 0 0 1 874.5887,19.5 L874.5887,33.2969 L7,33.2969 L7,19.5 A12.5,12.5 0 0 1 19.5,7 " fill="#F1F1F1" style="stroke:#F1F1F1;stroke-width:1.0;"/><rect fill="none" height="376.2969" rx="12.5" ry="12.5" style="stroke:#181818;stroke-width:0.5;" width="867.5887" x="7" y="7"/><line style="stroke:#181818;stroke-width:0.5;" x1="7" x2="874.5887" y1="33.2969" y2="33.2969"/><text fill="#000000" font-family="sans-serif" font-size="14" lengthAdjust="spacing" textLength="80.3086" x="400.6401" y="24.9951">Suscripcion</text><ellipse cx="488.16" cy="54.2969" fill="#222222" rx="10" ry="10" style="stroke:#222222;stroke-width:1.0;"/><g id="Suscripcion.Inactiva"><rect fill="#F1F1F1" height="50" rx="12.5" ry="12.5" style="stroke:#181818;stroke-width:0.5;" width="75.5215" x="450.16" y="117.2969"/><line style="stroke:#181818;stroke-width:0.5;" x1="450.16" x2="525.6815" y1="143.5938" y2="143.5938"/><text fill="#000000" font-family="sans-serif" font-size="14" lengthAdjust="spacing" textLength="55.5215" x="460.16" y="135.292">Inactiva</text></g><g id="Suscripcion.Activa"><rect fill="#F1F1F1" height="50" rx="12.5" ry="12.5" style="stroke:#181818;stroke-width:0.5;" width="63.5176" x="312.16" y="220.2969"/><line style="stroke:#181818;stroke-width:0.5;" x1="312.16" x2="375.6776" y1="246.5938" y2="246.5938"/><text fill="#000000" font-family="sans-serif" font-size="14" lengthAdjust="spacing" textLength="43.5176" x="322.16" y="238.292">Activa</text></g><g id="Suscripcion.Renovada"><rect fill="#F1F1F1" height="50" rx="12.5" ry="12.5" style="stroke:#181818;stroke-width:0.5;" width="90.1094" x="119.16" y="323.2969"/><line style="stroke:#181818;stroke-width:0.5;" x1="119.16" x2="209.2694" y1="349.5938" y2="349.5938"/><text fill="#000000" font-family="sans-serif" font-size="14" lengthAdjust="spacing" textLength="70.1094" x="129.16" y="341.292">Renovada</text></g><g id="Suscripcion.Cancelada"><rect fill="#F1F1F1" height="50" rx="12.5" ry="12.5" style="stroke:#181818;stroke-width:0.5;" width="93.4727" x="517.66" y="323.2969"/><line style="stroke:#181818;stroke-width:0.5;" x1="517.66" x2="611.1327" y1="349.5938" y2="349.5938"/><text fill="#000000" font-family="sans-serif" font-size="14" lengthAdjust="spacing" textLength="73.4727" x="527.66" y="341.292">Cancelada</text></g><!--link *start*Suscripcion to Inactiva--><g id="link_*start*Suscripcion_Inactiva"><path d="M488.16,64.4969 C488.16,76.9769 488.16,93.7169 488.16,111.2269 " fill="none" id="*start*Suscripcion-to-Inactiva" style="stroke:#181818;stroke-width:1.0;"/><polygon fill="#181818" points="488.16,117.2269,492.16,108.2269,488.16,112.2269,484.16,108.2269,488.16,117.2269" style="stroke:#181818;stroke-width:1.0;"/><text fill="#000000" font-family="sans-serif" font-size="13" lengthAdjust="spacing" textLength="140.9434" x="489.16" y="95.3638">Sin suscripción activa</text></g><!--link Inactiva to Activa--><g id="link_Inactiva_Activa"><path d="M453.67,167.4869 C430.21,183.9469 404.2823,202.1317 381.3123,218.2417 " fill="none" id="Inactiva-to-Activa" style="stroke:#181818;stroke-width:1.0;"/><polygon fill="#181818" points="376.4,221.6869,386.0652,219.7939,380.4936,218.8159,381.4716,213.2442,376.4,221.6869" style="stroke:#181818;stroke-width:1.0;"/><text fill="#000000" font-family="sans-serif" font-size="13" lengthAdjust="spacing" textLength="154.0259" x="426.16" y="198.3638">Usuario realiza un pago</text></g><!--link Activa to Renovada--><g id="link_Activa_Renovada"><path d="M311.96,245.7269 C241.62,245.2569 77.75,248.5469 43.16,288.2969 C18,317.2069 68.8325,332.2474 112.8525,340.0674 " fill="none" id="Activa-to-Renovada" style="stroke:#181818;stroke-width:1.0;"/><polygon fill="#181818" points="118.76,341.1169,110.5984,335.6044,113.8371,340.2423,109.1991,343.481,118.76,341.1169" style="stroke:#181818;stroke-width:1.0;"/><text fill="#000000" font-family="sans-serif" font-size="13" lengthAdjust="spacing" textLength="218.5815" x="44.16" y="301.3638">Renovación automática o manual</text></g><!--link Activa to Cancelada--><g id="link_Activa_Cancelada"><path d="M376.4,264.4269 C388.7,271.5969 402.75,280.0669 415.16,288.2969 C425.76,295.3169 426.88,299.4369 438.16,305.2969 C463.23,318.3169 487.3972,326.8264 511.7872,333.8964 " fill="none" id="Activa-to-Cancelada" style="stroke:#181818;stroke-width:1.0;"/><polygon fill="#181818" points="517.55,335.5669,510.0195,329.2193,512.7477,334.1748,507.7922,336.903,517.55,335.5669" style="stroke:#181818;stroke-width:1.0;"/><text fill="#000000" font-family="sans-serif" font-size="13" lengthAdjust="spacing" textLength="237.9229" x="439.16" y="301.3638">Usuario cancela o suscripción expira</text></g><!--link Renovada to Activa--><g id="link_Renovada_Activa"><path d="M209.59,330.6469 C226.8,323.6669 246.3,314.9269 263.16,305.2969 C274.2,298.9969 275.9,295.8069 286.16,288.2969 C294.49,282.2069 298.6496,279.1649 307.0496,273.0849 " fill="none" id="Renovada-to-Activa" style="stroke:#181818;stroke-width:1.0;"/><polygon fill="#181818" points="311.91,269.5669,302.274,271.6036,307.8597,272.4986,306.9647,278.0842,311.91,269.5669" style="stroke:#181818;stroke-width:1.0;"/><text fill="#000000" font-family="sans-serif" font-size="13" lengthAdjust="spacing" textLength="127.061" x="287.16" y="301.3638">Renovación exitosa</text></g><!--link Cancelada to Inactiva--><g id="link_Cancelada_Inactiva"><path d="M610.89,341.5569 C647.07,334.6369 689.15,319.7269 677.16,288.2969 C655.28,230.9469 634.93,221.2169 585.16,185.2969 C567.45,172.5169 550.8672,164.6556 532.1672,157.6356 " fill="none" id="Cancelada-to-Inactiva" style="stroke:#181818;stroke-width:1.0;"/><polygon fill="#181818" points="526.55,155.5269,533.57,162.4348,531.231,157.2841,536.3817,154.9451,526.55,155.5269" style="stroke:#181818;stroke-width:1.0;"/><text fill="#000000" font-family="sans-serif" font-size="13" lengthAdjust="spacing" textLength="194.4287" x="670.16" y="249.8638">Fin del período de suscripción</text></g><!--SRC=[NP1D2i8m48NtFSMiXLx0XI22uDRYIbmCQP21D1FoKuhYOJo0Au_GYvaGsneXYydCz-Oznddq4fhWX2KZY3NSAu3pwW9rlO63Hk6fHrX3GnhSX8rl3NaIuVXcBecsa-Ja0bfYi18LtH221eDNZlnseOzISuzjudFvtHuyT-FJaq1Ww507LALmXrf8bPMJayYzg2YYoi6GJL5dioBdhwySoBDBxBB_xnBxU8bMAZ3IZYzkENuAk-hn0G00]--></g></svg>