<svg xmlns="http://www.w3.org/2000/svg" xmlns:xlink="http://www.w3.org/1999/xlink" contentStyleType="text/css" height="677px" preserveAspectRatio="none" style="width:723px;height:677px;background:#FFFFFF;" version="1.1" viewBox="0 0 723 677" width="723px" zoomAndPan="magnify"><defs/><g><path d="M19.5,7 L697.1406,7 A12.5,12.5 0 0 1 709.6406,19.5 L709.6406,33.2969 L7,33.2969 L7,19.5 A12.5,12.5 0 0 1 19.5,7 " fill="#F1F1F1" style="stroke:#F1F1F1;stroke-width:1.0;"/><rect fill="none" height="664.2969" rx="12.5" ry="12.5" style="stroke:#181818;stroke-width:0.5;" width="702.6406" x="7" y="7"/><line style="stroke:#181818;stroke-width:0.5;" x1="7" x2="709.6406" y1="33.2969" y2="33.2969"/><text fill="#000000" font-family="sans-serif" font-size="14" lengthAdjust="spacing" textLength="203.3076" x="256.6665" y="24.9951">CreadorDeContenidoYViewer</text><ellipse cx="180.5" cy="54.2969" fill="#222222" rx="10" ry="10" style="stroke:#222222;stroke-width:1.0;"/><g id="CreadorDeContenidoYViewer.Desconocido"><rect fill="#F1F1F1" height="50" rx="12.5" ry="12.5" style="stroke:#181818;stroke-width:0.5;" width="109.4277" x="126" y="117.2969"/><line style="stroke:#181818;stroke-width:0.5;" x1="126" x2="235.4277" y1="143.5938" y2="143.5938"/><text fill="#000000" font-family="sans-serif" font-size="14" lengthAdjust="spacing" textLength="89.4277" x="136" y="135.292">Desconocido</text></g><g id="elem_rombo"><polygon fill="#F1F1F1" points="180.5,220.2969,192.5,232.2969,180.5,244.2969,168.5,232.2969,180.5,220.2969" style="stroke:#181818;stroke-width:0.5;"/></g><g id="CreadorDeContenidoYViewer.ViewerEnProceso"><rect fill="#F1F1F1" height="50" rx="12.5" ry="12.5" style="stroke:#181818;stroke-width:0.5;" width="140.5518" x="19" y="365.2969"/><line style="stroke:#181818;stroke-width:0.5;" x1="19" x2="159.5518" y1="391.5938" y2="391.5938"/><text fill="#000000" font-family="sans-serif" font-size="14" lengthAdjust="spacing" textLength="120.5518" x="29" y="383.292">ViewerEnProceso</text></g><g id="CreadorDeContenidoYViewer.CreadorEnProceso"><rect fill="#F1F1F1" height="50" rx="12.5" ry="12.5" style="stroke:#181818;stroke-width:0.5;" width="148.584" x="197" y="297.2969"/><line style="stroke:#181818;stroke-width:0.5;" x1="197" x2="345.584" y1="323.5938" y2="323.5938"/><text fill="#000000" font-family="sans-serif" font-size="14" lengthAdjust="spacing" textLength="128.584" x="207" y="315.292">CreadorEnProceso</text></g><g id="CreadorDeContenidoYViewer.Viewer"><rect fill="#F1F1F1" height="50" rx="12.5" ry="12.5" style="stroke:#181818;stroke-width:0.5;" width="67.8994" x="236.5" y="536.2969"/><line style="stroke:#181818;stroke-width:0.5;" x1="236.5" x2="304.3994" y1="562.5938" y2="562.5938"/><text fill="#000000" font-family="sans-serif" font-size="14" lengthAdjust="spacing" textLength="47.8994" x="246.5" y="554.292">Viewer</text></g><ellipse cx="407.5" cy="650.2969" fill="none" rx="11" ry="11" style="stroke:#222222;stroke-width:1.0;"/><ellipse cx="407.5" cy="650.2969" fill="#222222" rx="6" ry="6" style="stroke:#222222;stroke-width:1.0;"/><g id="CreadorDeContenidoYViewer.CreadorDeContenido"><rect fill="#F1F1F1" height="50" rx="12.5" ry="12.5" style="stroke:#181818;stroke-width:0.5;" width="166.8564" x="460" y="433.2969"/><line style="stroke:#181818;stroke-width:0.5;" x1="460" x2="626.8564" y1="459.5938" y2="459.5938"/><text fill="#000000" font-family="sans-serif" font-size="14" lengthAdjust="spacing" textLength="146.8564" x="470" y="451.292">CreadorDeContenido</text></g><!--link *start*CreadorDeContenidoYViewer to Desconocido--><g id="link_*start*CreadorDeContenidoYViewer_Desconocido"><path d="M180.5,64.4969 C180.5,76.9769 180.5,93.7169 180.5,111.2269 " fill="none" id="*start*CreadorDeContenidoYViewer-to-Desconocido" style="stroke:#181818;stroke-width:1.0;"/><polygon fill="#181818" points="180.5,117.2269,184.5,108.2269,180.5,112.2269,176.5,108.2269,180.5,117.2269" style="stroke:#181818;stroke-width:1.0;"/><text fill="#000000" font-family="sans-serif" font-size="13" lengthAdjust="spacing" textLength="83.6558" x="181.5" y="95.3638">Sin Registrar</text></g><!--link Desconocido to rombo--><g id="link_Desconocido_rombo"><path d="M180.5,167.3469 C180.5,184.4469 180.5,200.6369 180.5,213.8869 " fill="none" id="Desconocido-to-rombo" style="stroke:#181818;stroke-width:1.0;"/><polygon fill="#181818" points="180.5,219.8869,184.5,210.8869,180.5,214.8869,176.5,210.8869,180.5,219.8869" style="stroke:#181818;stroke-width:1.0;"/><text fill="#000000" font-family="sans-serif" font-size="13" lengthAdjust="spacing" textLength="69.291" x="181.5" y="198.3638">se registra</text></g><!--link rombo to ViewerEnProceso--><g id="link_rombo_ViewerEnProceso"><path d="M168.82,232.8769 C148.21,232.8569 105.77,236.1869 86.5,262.2969 C64.5,292.1069 70.9633,331.7347 79.1733,359.4047 " fill="none" id="rombo-to-ViewerEnProceso" style="stroke:#181818;stroke-width:1.0;"/><polygon fill="#181818" points="80.88,365.1569,82.1547,355.3909,79.4577,360.3634,74.4852,357.6665,80.88,365.1569" style="stroke:#181818;stroke-width:1.0;"/><text fill="#000000" font-family="sans-serif" font-size="13" lengthAdjust="spacing" textLength="157.752" x="87.5" y="275.3638">se registra como Viewer</text></g><!--link rombo to CreadorEnProceso--><g id="link_rombo_CreadorEnProceso"><path d="M190.36,234.8869 C205.16,237.7769 233.12,245.2369 249.5,262.2969 C258.58,271.7569 262.4247,279.5247 265.5947,291.2547 " fill="none" id="rombo-to-CreadorEnProceso" style="stroke:#181818;stroke-width:1.0;"/><polygon fill="#181818" points="267.16,297.0469,268.6735,287.315,265.8556,292.22,260.9505,289.4021,267.16,297.0469" style="stroke:#181818;stroke-width:1.0;"/><text fill="#000000" font-family="sans-serif" font-size="13" lengthAdjust="spacing" textLength="249.6406" x="261.5" y="275.3638">se registra como CreadorDeContenido</text></g><!--link ViewerEnProceso to Viewer--><g id="link_ViewerEnProceso_Viewer"><path d="M87.22,415.5969 C86.63,435.6769 88.93,463.9269 103.5,483.2969 C135.74,526.1569 191.7303,544.6372 230.4403,553.1572 " fill="none" id="ViewerEnProceso-to-Viewer" style="stroke:#181818;stroke-width:1.0;"/><polygon fill="#181818" points="236.3,554.4469,228.3702,548.6058,231.4169,553.3721,226.6506,556.4188,236.3,554.4469" style="stroke:#181818;stroke-width:1.0;"/><text fill="#000000" font-family="sans-serif" font-size="13" lengthAdjust="spacing" textLength="126.4136" x="104.5" y="462.8638">Acepta condiciones</text></g><!--link Viewer to *end*CreadorDeContenidoYViewer--><g id="link_Viewer_*end*CreadorDeContenidoYViewer"><path d="M304.72,584.0269 C335.94,603.8569 374.9161,628.5986 393.5461,640.4386 " fill="none" id="Viewer-to-*end*CreadorDeContenidoYViewer" style="stroke:#181818;stroke-width:1.0;"/><polygon fill="#181818" points="398.61,643.6569,393.1597,635.4536,394.3901,640.975,388.8687,642.2054,398.61,643.6569" style="stroke:#181818;stroke-width:1.0;"/><text fill="#000000" font-family="sans-serif" font-size="13" lengthAdjust="spacing" textLength="77.5239" x="363.5" y="617.3638">Fin Registro</text></g><!--link CreadorEnProceso to Viewer--><g id="link_CreadorEnProceso_Viewer"><path d="M268.86,347.4169 C265.77,378.7369 261.31,435.0869 263.5,483.2969 C264.3,500.9969 265.5133,514.9497 267.1033,530.0897 " fill="none" id="CreadorEnProceso-to-Viewer" style="stroke:#181818;stroke-width:1.0;"/><polygon fill="#181818" points="267.73,536.0569,270.7681,526.6883,267.2078,531.0842,262.8119,527.5239,267.73,536.0569" style="stroke:#181818;stroke-width:1.0;"/><text fill="#000000" font-family="sans-serif" font-size="13" lengthAdjust="spacing" textLength="186.0752" x="264.5" y="462.8638">Acepta condiciones mínimas</text></g><!--link CreadorEnProceso to CreadorDeContenido--><g id="link_CreadorEnProceso_CreadorDeContenido"><path d="M320.44,347.4069 C369.69,371.6669 439.838,406.2247 489.108,430.5047 " fill="none" id="CreadorEnProceso-to-CreadorDeContenido" style="stroke:#181818;stroke-width:1.0;"/><polygon fill="#181818" points="494.49,433.1569,488.1852,425.5906,490.005,430.9467,484.6489,432.7665,494.49,433.1569" style="stroke:#181818;stroke-width:1.0;"/><text fill="#000000" font-family="sans-serif" font-size="13" lengthAdjust="spacing" textLength="243.1406" x="456.5" y="394.8638">Completa requerimientos adicionales</text></g><!--link CreadorDeContenido to *end*CreadorDeContenidoYViewer--><g id="link_CreadorDeContenido_*end*CreadorDeContenidoYViewer"><path d="M540.82,483.4069 C538.94,494.4469 535.78,507.4569 530.5,518.2969 C504.5,571.6569 488.61,580.4969 445.5,621.2969 C436.33,629.9769 429.4586,635.0432 421.4386,640.3332 " fill="none" id="CreadorDeContenido-to-*end*CreadorDeContenidoYViewer" style="stroke:#181818;stroke-width:1.0;"/><polygon fill="#181818" points="416.43,643.6369,426.1453,642.0204,420.6038,640.8838,421.7404,635.3423,416.43,643.6369" style="stroke:#181818;stroke-width:1.0;"/><text fill="#000000" font-family="sans-serif" font-size="13" lengthAdjust="spacing" textLength="77.5239" x="521.5" y="565.8638">Fin Registro</text></g><!--link CreadorDeContenido to Viewer--><g id="link_CreadorDeContenido_Viewer"><path d="M459.98,480.4969 C455.1,481.5069 450.24,482.4469 445.5,483.2969 C410.71,489.5169 314.49,478.4769 287.5,501.2969 C277.41,509.8269 273.9465,517.9969 272.1965,530.2769 " fill="none" id="CreadorDeContenido-to-Viewer" style="stroke:#181818;stroke-width:1.0;"/><polygon fill="#181818" points="271.35,536.2169,276.5797,527.8712,272.0554,531.2669,268.6598,526.7426,271.35,536.2169" style="stroke:#181818;stroke-width:1.0;"/><text fill="#000000" font-family="sans-serif" font-size="13" lengthAdjust="spacing" textLength="241.998" x="288.5" y="514.3638">Accede como Viewer a otros streams</text></g><!--SRC=[XP9DIiH044RtVOfQ2tE1C0GaesjH44HSj9N2AKXtpNIrk12Fv2cycDNJmSG47SWgzRtNN__ikIT0JZWGEAVPPu8kaUybxQYJc2boBm_tJ6-KuDq1F5uymMRJmeuK9GhQ61guumYtzCAQaq-Mig_AaeHdWUqMzy98RUjiCaUBgcOQK8kF3alLlsLULx-ADqcGT944b21Zv1SrRkDVRBtLqc-vtjJ179T8Xrpms3EoHD8VuXGivzF0zNGU9-Mgp1adXA_FoC7hN-owkNaw2OU1p9Je-4g90rFCek2hrWyqyytHiyMNuLbrfFA4fai03sAmsWCmDgZx-0O0]--></g></svg>