<svg xmlns="http://www.w3.org/2000/svg" xmlns:xlink="http://www.w3.org/1999/xlink" contentStyleType="text/css" height="519px" preserveAspectRatio="none" style="width:1042px;height:519px;background:#FFFFFF;" version="1.1" viewBox="0 0 1042 519" width="1042px" zoomAndPan="magnify"><defs/><g><g id="elem_Dispositivo1"><rect fill="#F1F1F1" height="20.2969" style="stroke:#181818;stroke-width:0.5;" width="179.3818" x="857.5" y="201"/><text fill="#000000" font-family="sans-serif" font-size="14" lengthAdjust="spacing" textLength="165.3818" x="864.5" y="215.9951">Ordenador : Dispositivo</text></g><g id="elem_Perfil1"><rect fill="#F1F1F1" height="20.2969" style="stroke:#181818;stroke-width:0.5;" width="88.6211" x="375.5" y="201"/><text fill="#000000" font-family="sans-serif" font-size="14" lengthAdjust="spacing" textLength="74.6211" x="382.5" y="215.9951">Ibai : Perfil</text></g><g id="elem_Condiciones1"><rect fill="#F1F1F1" height="20.2969" style="stroke:#181818;stroke-width:0.5;" width="322.5742" x="499.5" y="201"/><text fill="#000000" font-family="sans-serif" font-size="14" lengthAdjust="spacing" textLength="308.5742" x="506.5" y="215.9951">Gestión de Derechos digitales : Condiciones</text></g><g id="elem_CreadorDeContenido"><rect fill="#F1F1F1" height="20.2969" style="stroke:#181818;stroke-width:0.5;" width="306.209" x="503" y="298"/><text fill="#000000" font-family="sans-serif" font-size="14" lengthAdjust="spacing" textLength="292.209" x="510" y="312.9951">Ibai Llanos : CreadorDeContenido, Viewer</text></g><g id="elem_Dispositivo2"><rect fill="#F1F1F1" height="20.2969" style="stroke:#181818;stroke-width:0.5;" width="148.4561" x="7" y="7"/><text fill="#000000" font-family="sans-serif" font-size="14" lengthAdjust="spacing" textLength="134.4561" x="14" y="21.9951">Tablet : Dispositivo</text></g><g id="elem_Perfil2"><rect fill="#F1F1F1" height="20.2969" style="stroke:#181818;stroke-width:0.5;" width="116.9014" x="190.5" y="7"/><text fill="#000000" font-family="sans-serif" font-size="14" lengthAdjust="spacing" textLength="102.9014" x="197.5" y="21.9951">Jorge25 : Perfil</text></g><g id="elem_Condiciones2"><rect fill="#F1F1F1" height="20.2969" style="stroke:#181818;stroke-width:0.5;" width="262.2744" x="343" y="7"/><text fill="#000000" font-family="sans-serif" font-size="14" lengthAdjust="spacing" textLength="248.2744" x="350" y="21.9951">Politica de Privacidad : Condiciones</text></g><g id="elem_Viewer"><rect fill="#F1F1F1" height="20.2969" style="stroke:#181818;stroke-width:0.5;" width="155.3604" x="171.5" y="104"/><text fill="#000000" font-family="sans-serif" font-size="14" lengthAdjust="spacing" textLength="141.3604" x="178.5" y="118.9951">Jorge Otero : Viewer</text></g><g id="elem_Suscripcion"><rect fill="#F1F1F1" height="20.2969" style="stroke:#181818;stroke-width:0.5;" width="181.959" x="158" y="201"/><text fill="#000000" font-family="sans-serif" font-size="14" lengthAdjust="spacing" textLength="167.959" x="165" y="215.9951">VIP de Ibai : Suscripcion</text></g><g id="elem_Recomendación"><rect fill="#F1F1F1" height="20.2969" style="stroke:#181818;stroke-width:0.5;" width="364.1094" x="94" y="298"/><text fill="#000000" font-family="sans-serif" font-size="14" lengthAdjust="spacing" textLength="350.1094" x="101" y="312.9951">Recomendación de Videojuegos : Recomendación</text></g><g id="elem_Categoria"><rect fill="#F1F1F1" height="20.2969" style="stroke:#181818;stroke-width:0.5;" width="181.4053" x="269.5" y="395"/><text fill="#000000" font-family="sans-serif" font-size="14" lengthAdjust="spacing" textLength="167.4053" x="276.5" y="409.9951">Videojuegos : Categoria</text></g><g id="elem_Contenido"><rect fill="#F1F1F1" height="20.2969" style="stroke:#181818;stroke-width:0.5;" width="231.875" x="244" y="492"/><text fill="#000000" font-family="sans-serif" font-size="14" lengthAdjust="spacing" textLength="217.875" x="251" y="506.9951">League of Legends : Contenido</text></g><g id="elem_SuscripcionIbai"><rect fill="#F1F1F1" height="20.2969" style="stroke:#181818;stroke-width:0.5;" width="293.2412" x="509.5" y="395"/><text fill="#000000" font-family="sans-serif" font-size="14" lengthAdjust="spacing" textLength="279.2412" x="516.5" y="409.9951">Suscripción a un Streamer : Suscripcion</text></g><!--link Dispositivo1 to CreadorDeContenido--><g id="link_Dispositivo1_CreadorDeContenido"><path codeLine="18" d="M919.36,221.02 C863.89,239.13 745.2536,277.8574 689.5836,296.0374 " fill="none" id="Dispositivo1-to-CreadorDeContenido" style="stroke:#181818;stroke-width:1.0;"/><polygon fill="#181818" points="683.88,297.9,693.6771,298.9085,688.633,296.3478,691.1936,291.3037,683.88,297.9" style="stroke:#181818;stroke-width:1.0;"/><text fill="#000000" font-family="sans-serif" font-size="13" lengthAdjust="spacing" textLength="22.9785" x="819" y="264.0669">usa</text></g><!--link Perfil1 to CreadorDeContenido--><g id="link_Perfil1_CreadorDeContenido"><path codeLine="19" d="M442.63,221.11 C487.74,239.27 582.8243,277.5389 627.8743,295.6789 " fill="none" id="Perfil1-to-CreadorDeContenido" style="stroke:#181818;stroke-width:1.0;"/><polygon fill="#181818" points="633.44,297.92,626.5855,290.8478,628.8019,296.0524,623.5973,298.2688,633.44,297.92" style="stroke:#181818;stroke-width:1.0;"/><text fill="#000000" font-family="sans-serif" font-size="13" lengthAdjust="spacing" textLength="32.9443" x="554" y="264.0669">tiene</text></g><!--link Condiciones1 to CreadorDeContenido--><g id="link_Condiciones1_CreadorDeContenido"><path codeLine="20" d="M660.52,221.11 C659.57,239.22 657.7528,273.5882 656.8028,291.7882 " fill="none" id="Condiciones1-to-CreadorDeContenido" style="stroke:#181818;stroke-width:1.0;"/><polygon fill="#181818" points="656.49,297.78,660.9537,289.0007,656.7506,292.7868,652.9646,288.5837,656.49,297.78" style="stroke:#181818;stroke-width:1.0;"/><text fill="#000000" font-family="sans-serif" font-size="13" lengthAdjust="spacing" textLength="44.4272" x="660" y="264.0669">acepta</text></g><!--link CreadorDeContenido to Categoria--><g id="link_CreadorDeContenido_Categoria"><path codeLine="21" d="M627.89,318.02 C571.46,336.13 450.7028,374.886 394.0728,393.066 " fill="none" id="CreadorDeContenido-to-Categoria" style="stroke:#181818;stroke-width:1.0;"/><polygon fill="#181818" points="388.36,394.9,398.1519,395.9576,393.1207,393.3717,395.7066,388.3404,388.36,394.9" style="stroke:#181818;stroke-width:1.0;"/><text fill="#000000" font-family="sans-serif" font-size="13" lengthAdjust="spacing" textLength="31.3511" x="527" y="361.0669">hace</text></g><!--link Categoria to Contenido--><g id="link_Categoria_Contenido"><path codeLine="22" d="M360,415.11 C360,433.22 360,467.58 360,485.78 " fill="none" id="Categoria-to-Contenido" style="stroke:#181818;stroke-width:1.0;"/><polygon fill="#181818" points="360,491.78,364,482.78,360,486.78,356,482.78,360,491.78" style="stroke:#181818;stroke-width:1.0;"/><text fill="#000000" font-family="sans-serif" font-size="13" lengthAdjust="spacing" textLength="66.0728" x="361" y="458.0669">pertenece</text></g><!--link Dispositivo2 to Viewer--><g id="link_Dispositivo2_Viewer"><path codeLine="23" d="M97.11,27.11 C129.14,45.22 195.277,82.627 227.467,100.827 " fill="none" id="Dispositivo2-to-Viewer" style="stroke:#181818;stroke-width:1.0;"/><polygon fill="#181818" points="232.69,103.78,226.8242,95.8685,228.3375,101.3191,222.8868,102.8324,232.69,103.78" style="stroke:#181818;stroke-width:1.0;"/><text fill="#000000" font-family="sans-serif" font-size="13" lengthAdjust="spacing" textLength="22.9785" x="177" y="70.0669">usa</text></g><!--link Perfil2 to Viewer--><g id="link_Perfil2_Viewer"><path codeLine="24" d="M249,27.11 C249,45.22 249,79.58 249,97.78 " fill="none" id="Perfil2-to-Viewer" style="stroke:#181818;stroke-width:1.0;"/><polygon fill="#181818" points="249,103.78,253,94.78,249,98.78,245,94.78,249,103.78" style="stroke:#181818;stroke-width:1.0;"/><text fill="#000000" font-family="sans-serif" font-size="13" lengthAdjust="spacing" textLength="32.9443" x="250" y="70.0669">tiene</text></g><!--link Condiciones2 to Viewer--><g id="link_Condiciones2_Viewer"><path codeLine="25" d="M452.43,27.11 C409.42,45.27 318.9872,83.4456 276.0372,101.5856 " fill="none" id="Condiciones2-to-Viewer" style="stroke:#181818;stroke-width:1.0;"/><polygon fill="#181818" points="270.51,103.92,280.3572,104.1032,275.116,101.9746,277.2446,96.7335,270.51,103.92" style="stroke:#181818;stroke-width:1.0;"/><text fill="#000000" font-family="sans-serif" font-size="13" lengthAdjust="spacing" textLength="44.4272" x="376" y="70.0669">acepta</text></g><!--link Viewer to Suscripcion--><g id="link_Viewer_Suscripcion"><path codeLine="26" d="M249,124.11 C249,142.22 249,176.58 249,194.78 " fill="none" id="Viewer-to-Suscripcion" style="stroke:#181818;stroke-width:1.0;"/><polygon fill="#181818" points="249,200.78,253,191.78,249,195.78,245,191.78,249,200.78" style="stroke:#181818;stroke-width:1.0;"/><text fill="#000000" font-family="sans-serif" font-size="13" lengthAdjust="spacing" textLength="52.0889" x="250" y="167.0669">tiene su</text></g><!--link Suscripcion to Recomendaci?n--><g id="link_Suscripcion_Recomendación"><path codeLine="27" d="M251.59,221.11 C256.74,239.22 266.5705,273.8083 271.7405,292.0083 " fill="none" id="Suscripcion-to-Recomendación" style="stroke:#181818;stroke-width:1.0;"/><polygon fill="#181818" points="273.38,297.78,274.7685,288.0295,272.0137,292.9703,267.0729,290.2155,273.38,297.78" style="stroke:#181818;stroke-width:1.0;"/><text fill="#000000" font-family="sans-serif" font-size="13" lengthAdjust="spacing" textLength="62.8418" x="266" y="264.0669">establece</text></g><!--link Recomendaci?n to Categoria--><g id="link_Recomendación_Categoria"><path codeLine="28" d="M284.05,318.11 C300.07,336.22 331.7746,372.086 347.8746,390.286 " fill="none" id="Recomendación-to-Categoria" style="stroke:#181818;stroke-width:1.0;"/><polygon fill="#181818" points="351.85,394.78,348.8828,385.3887,348.5371,391.035,342.8908,390.6893,351.85,394.78" style="stroke:#181818;stroke-width:1.0;"/><text fill="#000000" font-family="sans-serif" font-size="13" lengthAdjust="spacing" textLength="36.3213" x="325" y="361.0669">sobre</text></g><!--link CreadorDeContenido to SuscripcionIbai--><g id="link_CreadorDeContenido_SuscripcionIbai"><path codeLine="29" d="M656,318.11 C656,336.22 656,370.58 656,388.78 " fill="none" id="CreadorDeContenido-to-SuscripcionIbai" style="stroke:#181818;stroke-width:1.0;"/><polygon fill="#181818" points="656,394.78,660,385.78,656,389.78,652,385.78,656,394.78" style="stroke:#181818;stroke-width:1.0;"/><text fill="#000000" font-family="sans-serif" font-size="13" lengthAdjust="spacing" textLength="52.0889" x="657" y="361.0669">tiene su</text></g><!--SRC=[VLFBRjim4BppAnOvDuS6w2M7NcAWI64WHbFuJb4JUGE954WgHR-hdz0VwvAIPPgrVTlbpixEFdZW5cJOcnxga6mCO_nD0uO6FYZbcdUOI7SlleNLhVFqI1iEemiS-SFTaGwb_tbDU6uq2tO7_yPzXitc2V4D8VBVFvQawWOUvk02jTnnr3s2v3uvsx9XPn4oGU5NTRQzjYwdU2IH6mWsmdBhFj6UyGj-PlWllFByr4sFUBkxXnNztVaE3rykDNW2xLmlQKQd1dUUFxJXLhUt6wjAq4k4Tv9ID36RAsx_l4i5bdc_Ji5u7XDP1XV-cl43nWsmhUXPnh-NpRlt2LqUudayqvm_dMgVvJtfA9PdFJTrz5Rq5hgRGEwDjkY4RDdnl8ZZ8AgrhFgJKasJfTSeInpWRpURng5KUPbqV__rmW48pHIqMexpEYWoB5HvWjUnsc2CMbs8vPJZO0Hv4AWwFUHmGJJ2Ymt1b5UOOVCLdAcl0banbP8hm29pyLEe6E1A42PIvNl2LHVqIFALq_ynKg-ArHq7rtXS6qsrm4B3Fm00]--></g></svg>